# xmcd
#
# Track frame offsets:
# 150
# 13925
# 28870
# 46075
# 58520
# 74292
# 84780
# 101335
# 118375
# 130405
# 146575
# 162465
# 173110
# 189577
# 202095
#
# Disc length: 2856 seconds
#
#
# Revision: 0
# Processed by: cddbd v1.5.1PL0 Copyright (c) Steve Scherf et al.
# Submitted via: FreeRIP 2.943 
#
DISCID=d60b260f
DTITLE=leon e levi - leon e levi
DYEAR=2005
DGENRE=sertanejo
TTITLE0=bateu na veia
TTITLE1=juras de amor
TTITLE2=tchutchuka
TTITLE3=menina nova
TTITLE4=daqui pra frente
TTITLE5=saudade de amambai
TTITLE6=ela quis assim
TTITLE7=gol de placa
TTITLE8=dá um tempo solidão
TTITLE9=bailan sanfona
TTITLE10=pede a ela pra voltar
TTITLE11=eu não tenho inveja
TTITLE12=o que é que eu faço
TTITLE13=amo minha mulher
TTITLE14=mulherengo
EXTD=legal
EXTT0=
EXTT1=
EXTT2=
EXTT3=
EXTT4=
EXTT5=
EXTT6=
EXTT7=
EXTT8=
EXTT9=
EXTT10=
EXTT11=
EXTT12=
EXTT13=
EXTT14=
PLAYORDER=
